<?xml version="1.0" encoding="UTF-8"?>
<!DOCTYPE svg PUBLIC "-//W3C//DTD SVG 1.1//EN" "http://www.w3.org/Graphics/SVG/1.1/DTD/svg11.dtd">
<!-- Creator: CorelDRAW 2019 (64-Bit) -->
<svg xmlns="http://www.w3.org/2000/svg" xml:space="preserve" width="110px" height="110px" version="1.1" style="shape-rendering:geometricPrecision; text-rendering:geometricPrecision; image-rendering:optimizeQuality; fill-rule:evenodd; clip-rule:evenodd"
viewBox="0 0 110 110"
 xmlns:xlink="http://www.w3.org/1999/xlink"
 xmlns:xodm="http://www.corel.com/coreldraw/odm/2003">
 <defs>
  <style type="text/css">
   <![CDATA[
    .fil1 {fill:black}
    .fil2 {fill:#C4232B}
    .fil0 {fill:black;fill-rule:nonzero}
   ]]>
  </style>
 </defs>
 <g id="Слой_x0020_1">
  <metadata id="CorelCorpID_0Corel-Layer"/>
  <g id="_1170881308784">
   <path class="fil0" d="M14.69 97.7c0,1.3 0.08,2.4 0.23,3.29 0.15,0.89 0.4,1.77 0.77,2.66l-4.73 0 -4.73 0c0.36,-0.89 0.61,-1.77 0.76,-2.66 0.16,-0.89 0.23,-1.99 0.23,-3.29l0 -16.41c0,-1.3 -0.07,-2.4 -0.23,-3.29 -0.15,-0.9 -0.4,-1.78 -0.76,-2.66l4.72 0 4.74 0c-0.37,0.88 -0.62,1.76 -0.77,2.66 -0.15,0.89 -0.23,1.99 -0.23,3.29l0 4.43 0 0 6.52 -8.43c0.37,-0.44 0.63,-0.81 0.8,-1.1 0.17,-0.29 0.28,-0.57 0.32,-0.85l4.8 0 4.82 0c-0.62,0.38 -1.37,1.02 -2.27,1.92 -0.9,0.89 -2.14,2.23 -3.72,4.03l-6.13 6.97 0 0 7.41 9.44c1.37,1.7 2.46,2.99 3.29,3.89 0.83,0.89 1.57,1.58 2.25,2.06l-5.38 0 -5.39 0c0,-0.33 -0.1,-0.71 -0.33,-1.16 -0.23,-0.45 -0.62,-1.05 -1.18,-1.81l-5.81 -8.24 0 0 0 5.26zm32.36 0c-0.54,1.26 -0.93,2.34 -1.15,3.24 -0.23,0.89 -0.34,1.79 -0.34,2.71l-4.84 0 -4.85 0c0.58,-0.58 1.13,-1.32 1.65,-2.21 0.53,-0.9 1.13,-2.14 1.82,-3.75l1.01 -2.41 0 0.01 -6.02 -14c-0.44,-1.05 -0.95,-2.02 -1.52,-2.91 -0.57,-0.89 -1.32,-1.9 -2.26,-3.04l5.22 0 5.23 0c-0.07,0.69 -0.08,1.28 -0.03,1.76 0.05,0.49 0.17,0.99 0.36,1.51l2.77 7.64 0 0 0 0 3.18 -7.64c0.24,-0.57 0.4,-1.11 0.48,-1.6 0.07,-0.49 0.09,-1.04 0.04,-1.67l4.65 0 4.66 0c-0.52,0.64 -1.01,1.41 -1.49,2.3 -0.48,0.89 -1.06,2.11 -1.72,3.65l-6.85 16.41zm12.4 0l0 -16.41c0,-1.3 -0.07,-2.4 -0.23,-3.29 -0.14,-0.9 -0.4,-1.78 -0.76,-2.66l4.72 0 0 0 5.03 0c3.42,0 6.06,0.76 7.92,2.28 1.86,1.52 2.78,3.68 2.78,6.49 0,2.7 -1.02,4.82 -3.08,6.4 -2.05,1.57 -4.83,2.36 -8.33,2.36l-0.58 0 0 0 0 4.83c0,1.3 0.08,2.4 0.23,3.29 0.15,0.89 0.4,1.77 0.77,2.66l-4.73 0 -4.73 0c0.36,-0.89 0.62,-1.77 0.78,-2.66 0.14,-0.89 0.21,-1.99 0.21,-3.29zm7.47 -9.81l0 0 0.26 0c1.31,0 2.39,-0.37 3.23,-1.12 0.83,-0.75 1.25,-1.71 1.25,-2.89 0,-1.05 -0.39,-1.91 -1.17,-2.57 -0.79,-0.66 -1.79,-0.99 -3.02,-0.99l-0.55 0 0 0 0 7.57zm38.33 14.06c-1.91,0.86 -3.53,1.44 -4.86,1.74 -1.33,0.31 -2.91,0.46 -4.74,0.46 -4.16,0 -7.56,-1.31 -10.21,-3.92 -2.65,-2.61 -3.97,-5.98 -3.97,-10.09 0,-4.47 1.45,-8.11 4.35,-10.95 2.9,-2.84 6.62,-4.26 11.17,-4.26 1.27,0 2.42,0.06 3.42,0.19 1,0.12 2.45,0.39 4.37,0.78l0 7.36c-1.44,-1.02 -2.74,-1.73 -3.89,-2.13 -1.14,-0.4 -2.46,-0.6 -3.96,-0.6 -2.17,0 -3.95,0.81 -5.32,2.43 -1.38,1.63 -2.08,3.71 -2.08,6.25 0,2.87 0.67,5.15 2,6.83 1.34,1.69 3.13,2.53 5.4,2.53 1.61,0 3.05,-0.31 4.33,-0.92 1.29,-0.6 2.62,-1.62 3.99,-3.04l0 7.34z"/>
   <path class="fil1" d="M57.05 8.26c-3.66,2.62 -7.34,5.14 -11.08,7.64 -10.38,6.97 -23.93,17.03 -24.27,22.63 0.1,8.77 5.93,12.38 12.47,15.54l-27.98 17.37 0.04 -63.18 50.82 0z"/>
   <path class="fil2" d="M105.95 8.26l-32.11 27.21 0 0c-1.57,1.23 -2.44,2.43 -2.45,3.58 -0.01,1.14 0.84,2.32 2.69,3.55l0.04 0.02 32.07 24.55 -41.97 0.17 -25.51 -20.5 -0.03 -0.03c-2.97,-2.73 -4.34,-5.6 -4.1,-8.6 0.23,-2.96 2.04,-6.01 5.43,-9.14l0.03 -0.03 26.28 -20.78 39.63 0z"/>
  </g>
 </g>
</svg>
